<?xml version="1.0" encoding="UTF-8" standalone="no"?>
<svg
   xmlns:dc="http://purl.org/dc/elements/1.1/"
   xmlns:cc="http://creativecommons.org/ns#"
   xmlns:rdf="http://www.w3.org/1999/02/22-rdf-syntax-ns#"
   xmlns:svg="http://www.w3.org/2000/svg"
   xmlns="http://www.w3.org/2000/svg"
   xmlns:sodipodi="http://sodipodi.sourceforge.net/DTD/sodipodi-0.dtd"
   xmlns:inkscape="http://www.inkscape.org/namespaces/inkscape"
   id="svg8"
   version="1.1"
   viewBox="0 0 210 297"
   height="297mm"
   width="210mm"
   sodipodi:docname="r2d2 svg done bigger.svg"
   inkscape:version="0.92.2 (5c3e80d, 2017-08-06)">
  <sodipodi:namedview
     pagecolor="#ffffff"
     bordercolor="#666666"
     borderopacity="1"
     objecttolerance="10"
     gridtolerance="10"
     guidetolerance="10"
     inkscape:pageopacity="0"
     inkscape:pageshadow="2"
     inkscape:window-width="1920"
     inkscape:window-height="1001"
     id="namedview3762"
     showgrid="false"
     inkscape:zoom="0.5946522"
     inkscape:cx="601.81266"
     inkscape:cy="498.1448"
     inkscape:window-x="-9"
     inkscape:window-y="-9"
     inkscape:window-maximized="1"
     inkscape:current-layer="svg8" />
  <defs
     id="defs2" />
  <metadata
     id="metadata5">
    <rdf:RDF>
      <cc:Work
         rdf:about="">
        <dc:format>image/svg+xml</dc:format>
        <dc:type
           rdf:resource="http://purl.org/dc/dcmitype/StillImage" />
        <dc:title></dc:title>
      </cc:Work>
    </rdf:RDF>
  </metadata>
  <g
     id="layer1"
     transform="matrix(5.5008467,0,0,4.3362321,-248.90873,-368.37896)">
    <path
       id="path57"
       d="m 56.605018,153.22869 c -0.62073,-0.22691 -1.26532,-0.98614 -1.38674,-1.63337 -0.085,-0.45314 0.0878,-1.24004 0.55729,-2.53752 0.6857,-1.89502 0.93315,-2.27448 1.89237,-2.90192 l 0.52458,-0.34313 0.10583,-8.54687 0.10583,-8.54687 h 3.5351 c 2.0853,0 3.61525,0.0868 3.73056,0.21167 0.1075,0.11641 0.29961,3.75973 0.42689,8.09625 0.25346,8.63506 0.27287,8.75295 1.53855,9.34707 0.77047,0.36166 1.54391,1.68253 2.19772,3.75324 0.30322,0.96032 0.30788,1.17372 0.0397,1.81561 -0.56087,1.34235 -1.05563,1.43754 -7.37299,1.41862 -3.06744,-0.009 -5.72005,-0.0689 -5.89467,-0.13278 z"
       style="fill:#bccbd0;stroke-width:0.21166667"
       inkscape:connector-curvature="0" />
    <g
       transform="translate(14.552083,-41.577381)"
       id="g43">
      <path
         id="path55"
         d="m 40.341314,175.25583 -3.915834,-0.1107 -1.375833,-0.82332 c -2.268321,-1.3574 -3.254669,-2.68712 -3.48075,-4.69248 -0.06425,-0.56987 -0.21293,-4.84612 -0.330409,-9.50279 -0.117479,-4.65667 -0.26736,-10.23804 -0.333068,-12.40306 -0.128572,-4.2363 0.02122,-5.64583 0.853729,-8.03329 2.717996,-7.79467 10.371713,-12.74568 18.847999,-12.19231 9.254209,0.60415 17.138697,8.35312 17.585085,17.28283 0.04947,0.98954 0.187505,6.70454 0.306752,12.7 0.191338,9.6201 0.178375,11.04687 -0.110334,12.14387 -0.751613,2.85588 -3.423588,5.18969 -6.3278,5.52695 -1.454413,0.1689 -16.823905,0.24271 -21.719537,0.1043 z m 7.715815,-16.36344 c 1.195676,-0.65623 1.684194,-1.57372 1.399964,-2.62928 -0.380909,-1.41458 -1.554328,-2.08986 -2.978881,-1.71428 -0.983718,0.25936 -1.691898,1.28461 -1.691898,2.44943 0,0.94552 1.345171,2.37208 2.2225,2.35697 0.116417,-0.002 0.588158,-0.21028 1.048315,-0.46284 z"
         style="fill:#c9d6db;stroke-width:0.21166667"
         inkscape:connector-curvature="0" />
      <path
         id="path53"
         d="m 60.750664,174.10637 c 0.300107,-0.53754 0.545651,-1.11814 0.545651,-1.29021 0,-0.17208 0.112412,-0.49286 0.249802,-0.71286 0.19205,-0.30752 0.188828,-3.32782 -0.01395,-13.06385 -0.145058,-6.96511 -0.294863,-12.69497 -0.332901,-12.733 -0.09365,-0.0937 -5.9073,-0.11423 -19.041401,-0.0674 -8.761674,0.0312 -11.025853,-0.016 -11.169733,-0.23333 -0.251715,-0.38012 0.01548,-3.14505 0.481959,-4.98731 0.910167,-3.59448 3.577091,-7.56342 6.542887,-9.73718 7.368774,-5.40089 17.322913,-4.87087 24.035281,1.27979 2.699609,2.47371 4.717284,5.77053 5.58351,9.12331 0.385835,1.49339 0.446348,2.61251 0.583724,10.795 0.08429,5.02088 0.1574,10.891 0.162459,13.04471 0.0091,3.87667 0.0032,3.928 -0.588459,5.13292 -1.254451,2.55462 -3.488565,4.07454 -6.350915,4.32069 l -1.233568,0.10608 z"
         style="fill:#b9ccd1;stroke-width:0.21166667"
         inkscape:connector-curvature="0" />
      <path
         id="path51"
         d="m 31.087523,145.6889 c -0.197042,-0.51348 0.263709,-4.22403 0.677865,-5.45903 1.285262,-3.83259 3.94306,-7.2949 7.29498,-9.50316 1.82719,-1.20375 3.196476,-1.81521 5.514279,-2.46239 2.527487,-0.70573 6.954167,-0.72457 9.360593,-0.0398 6.62229,1.88433 11.745401,6.88675 13.487303,13.16956 0.497658,1.79499 0.805227,4.43823 0.518751,4.45815 -0.10403,0.007 -8.408241,0.0528 -18.453802,0.10124 -16.897597,0.0815 -18.274783,0.0617 -18.399969,-0.26453 z"
         style="fill:#70c4c2;stroke-width:0.21166667"
         inkscape:connector-curvature="0" />
      <path
         id="path49"
         d="m 31.079406,145.66648 c -0.140802,-0.36526 0.121861,-3.29853 0.392056,-4.37827 1.385614,-5.53713 6.022556,-10.58992 11.423468,-12.44795 2.495468,-0.85849 5.275638,-1.26882 7.606384,-1.12264 8.978111,0.56312 16.67167,7.90374 17.495244,16.69267 0.106845,1.14024 0.07432,1.43236 -0.161098,1.44665 -1.185073,0.0719 -31.834333,-0.0542 -31.911436,-0.1313 -0.05405,-0.054 0.798672,-0.11679 1.894928,-0.13943 3.347017,-0.0691 5.55502,-0.13017 6.332362,-0.17505 0.407458,-0.0235 1.562822,-0.0194 2.567472,0.009 1.004653,0.0285 1.93334,-0.0141 2.06375,-0.0947 0.130412,-0.0806 0.237112,-0.0616 0.237112,0.0423 0,0.10388 0.142875,0.18888 0.3175,0.18888 0.174625,0 0.3175,-0.085 0.3175,-0.18888 0,-0.10389 0.07284,-0.14387 0.161859,-0.0889 0.198884,0.12292 3.265098,0.18449 7.82726,0.15719 l 3.438288,-0.0206 -0.09503,-0.68792 c -0.05227,-0.37835 -0.25335,-1.25942 -0.446853,-1.95792 -0.193504,-0.6985 -0.423194,-1.60337 -0.510424,-2.01083 -0.354838,-1.65747 -2.187797,-5.21745 -2.783743,-5.40659 -0.193933,-0.0616 -0.405862,-0.32411 -0.470954,-0.58345 -0.306622,-1.22168 -3.8296,-4.30553 -6.583718,-5.76308 -1.254917,-0.66413 -1.665106,-0.77729 -2.75818,-0.76089 -1.965389,0.0295 -6.545707,1.34792 -6.129315,1.76431 0.06829,0.0683 -0.222252,0.23851 -0.645661,0.37824 -0.42341,0.13974 -0.823083,0.39283 -0.888162,0.56243 -0.06508,0.1696 -0.248914,0.25825 -0.408515,0.197 -0.17371,-0.0666 -0.296894,0.0347 -0.306897,0.25242 -0.0112,0.24397 -0.0535,0.27175 -0.128421,0.0844 -0.08138,-0.20358 -0.195029,-0.16048 -0.418626,0.15875 -0.168802,0.24099 -0.434062,0.43818 -0.589466,0.43818 -0.155401,0 -0.340923,0.23257 -0.412267,0.51683 -0.09153,0.3647 -0.248465,0.49396 -0.533134,0.43914 -0.288057,-0.0555 -0.442055,0.0763 -0.538531,0.46064 -0.07431,0.29609 -0.190748,0.4827 -0.258746,0.41471 -0.119954,-0.11996 -0.914098,0.75459 -0.914098,1.00665 0,0.069 1.404937,0.12572 3.122083,0.12615 2.718005,7e-4 3.209369,0.054 3.796492,0.41201 0.370924,0.22617 0.771465,0.59257 0.890092,0.81423 0.333822,0.62375 0.35157,5.15319 0.02226,5.6805 -0.605291,0.96922 -0.909909,1.02468 -6.238608,1.1358 l -5.075182,0.10584 -0.204429,0.58208 c -0.131838,0.37539 -0.131237,0.78878 0.0017,1.16417 0.186656,0.52711 0.305452,0.58301 1.257944,0.59191 1.594146,0.0149 2.090633,0.0802 1.91835,0.25253 -0.291039,0.29104 -3.55538,0.18667 -3.672602,-0.11742 z m 3.970241,-0.0391 c 0,-0.11641 0.09525,-0.21166 0.211667,-0.21166 0.116416,0 0.211666,0.0953 0.211666,0.21166 0,0.11642 -0.09525,0.21167 -0.211666,0.21167 -0.116417,0 -0.211667,-0.0953 -0.211667,-0.21167 z m 12.3825,-2.79565 c -0.612781,-0.35143 -0.914624,-0.79802 -1.18104,-1.74739 -0.270756,-0.96482 -0.375596,-4.13774 -0.147134,-4.45279 0.08442,-0.11642 0.385515,-0.49742 0.669097,-0.84667 l 0.515603,-0.635 3.391009,-0.0673 c 2.922304,-0.058 3.467648,-0.0171 3.945473,0.29602 0.945322,0.6194 1.167826,1.33816 1.167826,3.77246 0,3.7078 -0.284666,3.93929 -4.83257,3.92987 -1.936369,-0.004 -3.264254,-0.0978 -3.528264,-0.24922 z M 40.55298,132.71571 c 0,-0.11642 0.238125,-0.21167 0.529167,-0.21167 0.291042,0 0.529167,0.0952 0.529167,0.21167 0,0.11641 -0.238125,0.21166 -0.529167,0.21166 -0.291042,0 -0.529167,-0.0952 -0.529167,-0.21166 z"
         style="fill:#71c2bd;stroke-width:0.21166667"
         inkscape:connector-curvature="0" />
      <path
         id="path47"
         d="m 64.430529,145.6747 -3.109951,-0.0585 -0.132105,-0.99982 c -0.43502,-3.29246 -2.067776,-7.60211 -3.49673,-9.2296 -0.345818,-0.39386 -0.629809,-0.79879 -0.63109,-0.89984 -0.0023,-0.18269 -2.60204,-2.77276 -4.022061,-4.00713 -0.726992,-0.63194 -0.998323,-0.79396 -3.383944,-2.02056 l -1.164167,-0.59858 1.164167,-0.002 c 1.608135,-0.003 3.676131,0.31846 5.185833,0.80707 1.747946,0.56572 4.270655,1.84892 4.523649,2.301 0.11499,0.20548 0.263398,0.34978 0.329796,0.32068 0.338931,-0.14857 0.516052,-0.0146 0.395609,0.2993 -0.08568,0.22328 -0.0515,0.30052 0.09338,0.21098 0.300152,-0.1855 0.932929,0.0618 0.782197,0.30565 -0.06441,0.10421 0.02131,0.18948 0.190498,0.18948 0.411133,0 1.686613,1.20649 1.534935,1.45191 -0.06582,0.1065 0.04599,0.18057 0.248469,0.16461 0.23012,-0.0181 0.357118,0.10986 0.338741,0.3414 -0.01617,0.20373 0.113085,0.37042 0.287229,0.37042 0.189539,0 0.269386,0.12311 0.198929,0.30672 -0.08286,0.21591 -0.01602,0.2677 0.225768,0.17492 0.260079,-0.0998 0.30944,-0.0431 0.20331,0.23344 -0.07709,0.20088 -0.05873,0.31491 0.0408,0.2534 0.289678,-0.17903 0.781602,0.51 1.499758,2.10068 0.367914,0.81492 0.758351,1.64715 0.867638,1.8494 0.438607,0.81172 0.78296,2.10802 0.672343,2.53102 -0.07345,0.28086 -0.03483,0.39736 0.103399,0.31193 0.139736,-0.0864 0.275996,0.38067 0.37164,1.27378 0.08306,0.77558 0.194754,1.52413 0.248215,1.66344 0.147375,0.38406 -0.199371,0.4186 -3.566249,0.35526 z m -0.877365,-10.04858 c -0.05872,-0.14552 -0.106762,-0.0265 -0.106762,0.26459 0,0.29104 0.04804,0.4101 0.106762,0.26458 0.05872,-0.14552 0.05872,-0.38365 0,-0.52917 z m -32.313517,7.06022 c 0,-1.25635 2.037084,-6.12426 2.986661,-7.13707 0.38805,-0.41389 0.651617,-0.4488 3.531758,-0.46787 3.578703,-0.0237 4.358181,0.16276 5.063001,1.21102 0.42268,0.62865 0.48358,0.98317 0.48358,2.8151 0,2.36768 -0.268082,3.14424 -1.263072,3.65877 -0.504499,0.26089 -1.575261,0.32108 -5.711417,0.32108 -4.855063,0 -5.090511,-0.0186 -5.090511,-0.40103 z m 16.520453,0.13241 c -1.154634,-0.41189 -1.460911,-1.17178 -1.512676,-3.75304 -0.05134,-2.56026 0.03172,-2.91419 0.819628,-3.4925 0.504666,-0.37042 0.974431,-0.43173 3.758055,-0.49047 3.024992,-0.0638 3.210842,-0.0439 3.782733,0.40595 0.897937,0.70632 1.185141,1.6204 1.185141,3.77192 0,3.34891 -0.415,3.70087 -4.445,3.76981 -1.846322,0.0316 -3.115958,-0.0433 -3.587881,-0.21167 z"
         style="fill:#69bab6;stroke-width:0.21166667"
         inkscape:connector-curvature="0" />
      <path
         id="path45"
         d="m 31.360232,142.29362 c 0.397334,-1.79774 2.116862,-5.84577 2.867247,-6.74993 0.152133,-0.18331 1.219107,-0.24479 3.793858,-0.21859 l 3.582196,0.0364 0.691807,0.69157 c 0.676159,0.67592 0.693463,0.73966 0.764968,2.8177 0.135676,3.94284 0.02985,4.0049 -6.829599,4.0049 h -4.999128 z m 16.458309,0.27324 c -1.035103,-0.45025 -1.307285,-1.05903 -1.443296,-3.22818 -0.224329,-3.57768 0.358758,-4.08297 4.711596,-4.08297 2.462219,0 2.801765,0.0454 3.305991,0.44202 0.93636,0.73654 1.190578,1.47921 1.167384,3.41038 -0.02725,2.26895 -0.164432,2.7093 -1.024603,3.28897 -0.646296,0.43554 -0.950372,0.47788 -3.377683,0.47034 -1.786609,-0.006 -2.889337,-0.1048 -3.339389,-0.30056 z"
         style="fill:#54a9a4;stroke-width:0.21166667"
         inkscape:connector-curvature="0" />
    </g>
    <path
       id="path59"
       d="m 88.613648,158.84788 c 0,-0.18433 0.15081,-0.33514 0.33513,-0.33514 0.18433,0 0.29744,0.11311 0.25136,0.25136 -0.13083,0.39247 -0.58649,0.45757 -0.58649,0.0838 z m -31.61161,-6.01615 c -0.8577,-0.89524 -0.79676,-1.95302 0.28858,-5.00882 l 0.9019,-2.53933 -0.13765,-8.36084 c -0.0757,-4.59846 -0.1408,-11.76259 -0.14464,-15.9203 -0.008,-8.38377 -0.004,-8.40786 1.36472,-9.2539 0.44149,-0.27286 1.25832,-0.49958 2.07444,-0.57579 1.2471,-0.11646 1.39646,-0.0834 2.02887,0.44872 0.37547,0.31593 1.01307,1.16524 1.4169,1.88735 l 0.73423,1.31292 0.11537,8.14009 c 0.28577,20.16166 0.28149,20.03954 0.73369,20.92592 0.50831,0.99638 1.39391,1.76183 2.95215,2.55165 1.53085,0.77593 1.97841,1.28266 2.67299,3.02637 0.66941,1.68052 0.59468,2.66661 -0.26226,3.4608 l -0.54617,0.50617 h -6.80866 -6.80865 z m 4.94584,-35.91368 c 1.14734,-0.59331 1.39129,-1.80469 0.55843,-2.77295 -0.60782,-0.70664 -1.59329,-0.76688 -2.42285,-0.14812 -0.9161,0.68331 -0.89946,1.65522 0.0458,2.67518 0.60043,0.64787 0.9499,0.69512 1.81862,0.24589 z"
       style="fill:#bccbd0;stroke-width:0.21166667"
       inkscape:connector-curvature="0" />
  </g>
</svg>
